<mxfile host="app.diagrams.net" modified="2023-05-25T08:56:12.281Z" agent="Mozilla/5.0 (Windows NT 10.0; Win64; x64) AppleWebKit/537.36 (KHTML, like Gecko) Chrome/113.0.0.0 Safari/537.36" etag="vVVKSaxX5t9804mhjnfg" version="21.3.3" type="device">
  <diagram name="페이지-1" id="AninEFvJT3ZKiQwhQTG5">
    <mxGraphModel dx="4431" dy="4588" grid="1" gridSize="10" guides="1" tooltips="1" connect="1" arrows="1" fold="1" page="1" pageScale="1" pageWidth="827" pageHeight="1169" math="0" shadow="0">
      <root>
        <mxCell id="0" />
        <mxCell id="1" parent="0" />
        <mxCell id="SoVxkgg8JPjOXkME5BDQ-1" value="&lt;font style=&quot;font-size: 24px;&quot;&gt;sd 채용 정보 조회&lt;/font&gt;" style="shape=umlFrame;whiteSpace=wrap;html=1;pointerEvents=0;width=250;height=70;" parent="1" vertex="1">
          <mxGeometry x="1910" y="-1160" width="2050" height="720" as="geometry" />
        </mxCell>
        <mxCell id="SoVxkgg8JPjOXkME5BDQ-2" value="&lt;font style=&quot;font-size: 18px;&quot;&gt;:CompanyMember&lt;/font&gt;" style="shape=umlActor;verticalLabelPosition=bottom;verticalAlign=top;html=1;outlineConnect=0;" parent="1" vertex="1">
          <mxGeometry x="1940" y="-1050" width="110" height="220" as="geometry" />
        </mxCell>
        <mxCell id="SoVxkgg8JPjOXkME5BDQ-3" value="&lt;font style=&quot;font-size: 18px;&quot;&gt;:EmploymentinfoUI&lt;/font&gt;" style="rounded=0;whiteSpace=wrap;html=1;" parent="1" vertex="1">
          <mxGeometry x="2400" y="-982.5" width="260" height="85" as="geometry" />
        </mxCell>
        <mxCell id="SoVxkgg8JPjOXkME5BDQ-4" value="&lt;font style=&quot;font-size: 18px;&quot;&gt;:Employmentinfo&lt;/font&gt;" style="rounded=0;whiteSpace=wrap;html=1;" parent="1" vertex="1">
          <mxGeometry x="3060" y="-982.5" width="310" height="85" as="geometry" />
        </mxCell>
        <mxCell id="SoVxkgg8JPjOXkME5BDQ-5" value="" style="endArrow=none;html=1;rounded=0;entryX=0;entryY=0.5;entryDx=0;entryDy=0;" parent="1" source="SoVxkgg8JPjOXkME5BDQ-2" target="SoVxkgg8JPjOXkME5BDQ-3" edge="1">
          <mxGeometry width="50" height="50" relative="1" as="geometry">
            <mxPoint x="2200" y="-902.5" as="sourcePoint" />
            <mxPoint x="2250" y="-952.5" as="targetPoint" />
          </mxGeometry>
        </mxCell>
        <mxCell id="SoVxkgg8JPjOXkME5BDQ-6" value="" style="endArrow=none;html=1;rounded=0;entryX=0;entryY=0.5;entryDx=0;entryDy=0;exitX=1;exitY=0.5;exitDx=0;exitDy=0;" parent="1" source="SoVxkgg8JPjOXkME5BDQ-3" target="SoVxkgg8JPjOXkME5BDQ-4" edge="1">
          <mxGeometry width="50" height="50" relative="1" as="geometry">
            <mxPoint x="2770" y="-920" as="sourcePoint" />
            <mxPoint x="2820" y="-970" as="targetPoint" />
          </mxGeometry>
        </mxCell>
        <mxCell id="SoVxkgg8JPjOXkME5BDQ-8" value="&lt;font style=&quot;font-size: 18px;&quot;&gt;:Employment&lt;/font&gt;" style="rounded=0;whiteSpace=wrap;html=1;" parent="1" vertex="1">
          <mxGeometry x="3260" y="-550" width="220" height="60" as="geometry" />
        </mxCell>
        <mxCell id="SoVxkgg8JPjOXkME5BDQ-10" value="" style="endArrow=none;html=1;rounded=0;exitX=0.5;exitY=0;exitDx=0;exitDy=0;entryX=0.5;entryY=1;entryDx=0;entryDy=0;" parent="1" source="SoVxkgg8JPjOXkME5BDQ-8" target="SoVxkgg8JPjOXkME5BDQ-4" edge="1">
          <mxGeometry width="50" height="50" relative="1" as="geometry">
            <mxPoint x="2920" y="-620" as="sourcePoint" />
            <mxPoint x="3040" y="-890" as="targetPoint" />
          </mxGeometry>
        </mxCell>
        <mxCell id="SoVxkgg8JPjOXkME5BDQ-12" value="" style="endArrow=classic;html=1;rounded=0;" parent="1" edge="1">
          <mxGeometry width="50" height="50" relative="1" as="geometry">
            <mxPoint x="3040" y="-1560" as="sourcePoint" />
            <mxPoint x="2620" y="-1320" as="targetPoint" />
          </mxGeometry>
        </mxCell>
        <mxCell id="SoVxkgg8JPjOXkME5BDQ-13" value="" style="endArrow=classic;html=1;rounded=0;" parent="1" edge="1">
          <mxGeometry width="50" height="50" relative="1" as="geometry">
            <mxPoint x="3260" y="-860" as="sourcePoint" />
            <mxPoint x="3390" y="-580" as="targetPoint" />
          </mxGeometry>
        </mxCell>
        <mxCell id="SoVxkgg8JPjOXkME5BDQ-14" value="" style="endArrow=classic;html=1;rounded=0;" parent="1" edge="1">
          <mxGeometry width="50" height="50" relative="1" as="geometry">
            <mxPoint x="2680" y="-960" as="sourcePoint" />
            <mxPoint x="3050" y="-960" as="targetPoint" />
          </mxGeometry>
        </mxCell>
        <mxCell id="SoVxkgg8JPjOXkME5BDQ-15" value="" style="endArrow=classic;html=1;rounded=0;" parent="1" edge="1">
          <mxGeometry width="50" height="50" relative="1" as="geometry">
            <mxPoint x="2090" y="-960" as="sourcePoint" />
            <mxPoint x="2340" y="-960" as="targetPoint" />
          </mxGeometry>
        </mxCell>
        <mxCell id="SoVxkgg8JPjOXkME5BDQ-16" value="" style="endArrow=classic;html=1;rounded=0;" parent="1" edge="1">
          <mxGeometry width="50" height="50" relative="1" as="geometry">
            <mxPoint x="3050" y="-920" as="sourcePoint" />
            <mxPoint x="2680" y="-920" as="targetPoint" />
          </mxGeometry>
        </mxCell>
        <mxCell id="SoVxkgg8JPjOXkME5BDQ-17" value="&lt;font style=&quot;font-size: 18px;&quot;&gt;1: startInterface()&lt;/font&gt;" style="text;html=1;align=center;verticalAlign=middle;resizable=0;points=[];autosize=1;strokeColor=none;fillColor=none;" parent="1" vertex="1">
          <mxGeometry x="2790" y="-910" width="160" height="40" as="geometry" />
        </mxCell>
        <mxCell id="SoVxkgg8JPjOXkME5BDQ-18" value="&lt;font style=&quot;font-size: 18px;&quot;&gt;2: Employment_View()&lt;/font&gt;" style="text;html=1;align=center;verticalAlign=middle;resizable=0;points=[];autosize=1;strokeColor=none;fillColor=none;" parent="1" vertex="1">
          <mxGeometry x="2127" y="-1022.5" width="200" height="40" as="geometry" />
        </mxCell>
        <mxCell id="SoVxkgg8JPjOXkME5BDQ-19" value="&lt;font style=&quot;font-size: 18px;&quot;&gt;3: EmploymentDate()&lt;br&gt;&lt;/font&gt;" style="text;html=1;align=center;verticalAlign=middle;resizable=0;points=[];autosize=1;strokeColor=none;fillColor=none;" parent="1" vertex="1">
          <mxGeometry x="2775" y="-1090" width="190" height="40" as="geometry" />
        </mxCell>
        <mxCell id="SoVxkgg8JPjOXkME5BDQ-21" value="&lt;font style=&quot;font-size: 18px;&quot;&gt;3.1.1 get_Date()&lt;/font&gt;" style="text;html=1;align=center;verticalAlign=middle;resizable=0;points=[];autosize=1;strokeColor=none;fillColor=none;" parent="1" vertex="1">
          <mxGeometry x="3535" y="-704" width="150" height="40" as="geometry" />
        </mxCell>
        <mxCell id="SoVxkgg8JPjOXkME5BDQ-22" value="&lt;font style=&quot;font-size: 24px;&quot;&gt;sd 채용 정보 등록&lt;/font&gt;" style="shape=umlFrame;whiteSpace=wrap;html=1;pointerEvents=0;width=320;height=70;" parent="1" vertex="1">
          <mxGeometry x="1910" y="-1810" width="1750" height="610" as="geometry" />
        </mxCell>
        <mxCell id="SoVxkgg8JPjOXkME5BDQ-23" value="&lt;font style=&quot;font-size: 18px;&quot;&gt;:Employmentwrite&lt;/font&gt;&lt;span style=&quot;font-size: 18px; background-color: initial;&quot;&gt;UI&lt;/span&gt;" style="rounded=0;whiteSpace=wrap;html=1;" parent="1" vertex="1">
          <mxGeometry x="2406" y="-1652.5" width="250" height="85" as="geometry" />
        </mxCell>
        <mxCell id="SoVxkgg8JPjOXkME5BDQ-24" value="&lt;font style=&quot;font-size: 18px;&quot;&gt;&lt;font style=&quot;font-size: 18px;&quot;&gt;:Employment&lt;/font&gt;write&lt;/font&gt;" style="rounded=0;whiteSpace=wrap;html=1;" parent="1" vertex="1">
          <mxGeometry x="2980" y="-1652.5" width="250" height="85" as="geometry" />
        </mxCell>
        <mxCell id="SoVxkgg8JPjOXkME5BDQ-25" value="&lt;font style=&quot;font-size: 18px;&quot;&gt;:CompanyMember&lt;/font&gt;" style="shape=umlActor;verticalLabelPosition=bottom;verticalAlign=top;html=1;outlineConnect=0;" parent="1" vertex="1">
          <mxGeometry x="1940" y="-1720" width="110" height="220" as="geometry" />
        </mxCell>
        <mxCell id="SoVxkgg8JPjOXkME5BDQ-26" value="" style="endArrow=none;html=1;rounded=0;entryX=0;entryY=0.5;entryDx=0;entryDy=0;" parent="1" source="SoVxkgg8JPjOXkME5BDQ-25" target="SoVxkgg8JPjOXkME5BDQ-23" edge="1">
          <mxGeometry width="50" height="50" relative="1" as="geometry">
            <mxPoint x="2770" y="-1412.5" as="sourcePoint" />
            <mxPoint x="2820" y="-1462.5" as="targetPoint" />
          </mxGeometry>
        </mxCell>
        <mxCell id="SoVxkgg8JPjOXkME5BDQ-27" value="" style="endArrow=none;html=1;rounded=0;entryX=1;entryY=0.5;entryDx=0;entryDy=0;exitX=0;exitY=0.5;exitDx=0;exitDy=0;" parent="1" source="SoVxkgg8JPjOXkME5BDQ-24" target="SoVxkgg8JPjOXkME5BDQ-23" edge="1">
          <mxGeometry width="50" height="50" relative="1" as="geometry">
            <mxPoint x="2770" y="-1412.5" as="sourcePoint" />
            <mxPoint x="2820" y="-1462.5" as="targetPoint" />
          </mxGeometry>
        </mxCell>
        <mxCell id="SoVxkgg8JPjOXkME5BDQ-28" value="&lt;font style=&quot;font-size: 18px;&quot;&gt;2. select_register()&lt;/font&gt;" style="text;html=1;align=center;verticalAlign=middle;resizable=0;points=[];autosize=1;strokeColor=none;fillColor=none;" parent="1" vertex="1">
          <mxGeometry x="2142" y="-1692.5" width="170" height="40" as="geometry" />
        </mxCell>
        <mxCell id="SoVxkgg8JPjOXkME5BDQ-29" value="" style="endArrow=classic;html=1;rounded=0;" parent="1" edge="1">
          <mxGeometry width="50" height="50" relative="1" as="geometry">
            <mxPoint x="2092" y="-1632.5" as="sourcePoint" />
            <mxPoint x="2372" y="-1632.5" as="targetPoint" />
          </mxGeometry>
        </mxCell>
        <mxCell id="SoVxkgg8JPjOXkME5BDQ-30" value="&lt;font style=&quot;font-size: 18px;&quot;&gt;3: addNew&lt;/font&gt;&lt;font style=&quot;font-size: 18px;&quot;&gt;Employment()&lt;/font&gt;" style="text;html=1;align=center;verticalAlign=middle;resizable=0;points=[];autosize=1;strokeColor=none;fillColor=none;" parent="1" vertex="1">
          <mxGeometry x="2708" y="-1692.5" width="220" height="40" as="geometry" />
        </mxCell>
        <mxCell id="SoVxkgg8JPjOXkME5BDQ-32" value="" style="endArrow=none;html=1;rounded=0;entryX=0.5;entryY=1;entryDx=0;entryDy=0;exitX=0.5;exitY=0;exitDx=0;exitDy=0;" parent="1" target="SoVxkgg8JPjOXkME5BDQ-24" edge="1">
          <mxGeometry width="50" height="50" relative="1" as="geometry">
            <mxPoint x="2610" y="-1292.5" as="sourcePoint" />
            <mxPoint x="2840" y="-1462.5" as="targetPoint" />
          </mxGeometry>
        </mxCell>
        <mxCell id="SoVxkgg8JPjOXkME5BDQ-33" value="" style="endArrow=classic;html=1;rounded=0;" parent="1" edge="1">
          <mxGeometry width="50" height="50" relative="1" as="geometry">
            <mxPoint x="2700" y="-1632.5" as="sourcePoint" />
            <mxPoint x="2970" y="-1632.5" as="targetPoint" />
          </mxGeometry>
        </mxCell>
        <mxCell id="SoVxkgg8JPjOXkME5BDQ-34" value="&lt;font style=&quot;font-size: 18px;&quot;&gt;&lt;font style=&quot;font-size: 18px;&quot;&gt;newEmployment&lt;br&gt;&lt;/font&gt;:Employment&lt;/font&gt;" style="rounded=0;whiteSpace=wrap;html=1;" parent="1" vertex="1">
          <mxGeometry x="3330" y="-1287.5" width="220" height="50" as="geometry" />
        </mxCell>
        <mxCell id="SoVxkgg8JPjOXkME5BDQ-35" value="&lt;font style=&quot;font-size: 18px;&quot;&gt;&lt;font style=&quot;font-size: 18px;&quot;&gt;3.1.1: add_&lt;/font&gt;Employment()&lt;/font&gt;" style="text;html=1;align=center;verticalAlign=middle;resizable=0;points=[];autosize=1;strokeColor=none;fillColor=none;" parent="1" vertex="1">
          <mxGeometry x="3070" y="-1465" width="230" height="40" as="geometry" />
        </mxCell>
        <mxCell id="SoVxkgg8JPjOXkME5BDQ-36" value="" style="endArrow=classic;html=1;rounded=0;" parent="1" edge="1">
          <mxGeometry width="50" height="50" relative="1" as="geometry">
            <mxPoint x="3100" y="-1260" as="sourcePoint" />
            <mxPoint x="3300" y="-1260" as="targetPoint" />
          </mxGeometry>
        </mxCell>
        <mxCell id="SoVxkgg8JPjOXkME5BDQ-37" value="" style="endArrow=classic;html=1;rounded=0;" parent="1" edge="1">
          <mxGeometry width="50" height="50" relative="1" as="geometry">
            <mxPoint x="2952" y="-1590" as="sourcePoint" />
            <mxPoint x="2702" y="-1590" as="targetPoint" />
          </mxGeometry>
        </mxCell>
        <mxCell id="SoVxkgg8JPjOXkME5BDQ-38" value="&lt;font style=&quot;font-size: 18px;&quot;&gt;1: startInterface()&lt;/font&gt;" style="text;html=1;align=center;verticalAlign=middle;resizable=0;points=[];autosize=1;strokeColor=none;fillColor=none;" parent="1" vertex="1">
          <mxGeometry x="2752" y="-1590" width="160" height="40" as="geometry" />
        </mxCell>
        <mxCell id="SoVxkgg8JPjOXkME5BDQ-39" value="&lt;font style=&quot;font-size: 18px;&quot;&gt;3.1 *[For all&amp;nbsp;Member]: get_login_member()&lt;/font&gt;" style="text;html=1;align=center;verticalAlign=middle;resizable=0;points=[];autosize=1;strokeColor=none;fillColor=none;" parent="1" vertex="1">
          <mxGeometry x="2440" y="-1465" width="360" height="40" as="geometry" />
        </mxCell>
        <mxCell id="SoVxkgg8JPjOXkME5BDQ-40" value="&lt;font style=&quot;font-size: 18px;&quot;&gt;:EmploymentCollection&lt;/font&gt;" style="rounded=0;whiteSpace=wrap;html=1;" parent="1" vertex="1">
          <mxGeometry x="2912" y="-550" width="220" height="60" as="geometry" />
        </mxCell>
        <mxCell id="SoVxkgg8JPjOXkME5BDQ-41" value="" style="endArrow=classic;html=1;rounded=0;" parent="1" edge="1">
          <mxGeometry width="50" height="50" relative="1" as="geometry">
            <mxPoint x="3180" y="-860" as="sourcePoint" />
            <mxPoint x="3020" y="-580" as="targetPoint" />
          </mxGeometry>
        </mxCell>
        <mxCell id="SoVxkgg8JPjOXkME5BDQ-42" value="" style="endArrow=none;html=1;rounded=0;exitX=0.5;exitY=0;exitDx=0;exitDy=0;entryX=0.5;entryY=1;entryDx=0;entryDy=0;" parent="1" source="SoVxkgg8JPjOXkME5BDQ-40" target="SoVxkgg8JPjOXkME5BDQ-4" edge="1">
          <mxGeometry width="50" height="50" relative="1" as="geometry">
            <mxPoint x="3335" y="-502" as="sourcePoint" />
            <mxPoint x="3210" y="-900" as="targetPoint" />
          </mxGeometry>
        </mxCell>
        <mxCell id="SoVxkgg8JPjOXkME5BDQ-44" value="&lt;font style=&quot;font-size: 18px;&quot;&gt;3.1:&amp;nbsp;*[For all Employments] getEmployment()&lt;/font&gt;" style="text;html=1;align=center;verticalAlign=middle;resizable=0;points=[];autosize=1;strokeColor=none;fillColor=none;fontSize=16;" parent="1" vertex="1">
          <mxGeometry x="2708" y="-770" width="380" height="40" as="geometry" />
        </mxCell>
        <mxCell id="SoVxkgg8JPjOXkME5BDQ-45" value="&lt;font style=&quot;font-size: 18px;&quot;&gt;:EmploymentCollection&lt;/font&gt;" style="rounded=0;whiteSpace=wrap;html=1;" parent="1" vertex="1">
          <mxGeometry x="2860" y="-1292.5" width="220" height="60" as="geometry" />
        </mxCell>
        <mxCell id="SoVxkgg8JPjOXkME5BDQ-46" style="edgeStyle=none;curved=1;rounded=0;orthogonalLoop=1;jettySize=auto;html=1;exitX=0.5;exitY=0;exitDx=0;exitDy=0;fontSize=12;startSize=8;endSize=8;" parent="1" source="SoVxkgg8JPjOXkME5BDQ-45" target="SoVxkgg8JPjOXkME5BDQ-45" edge="1">
          <mxGeometry relative="1" as="geometry" />
        </mxCell>
        <mxCell id="SoVxkgg8JPjOXkME5BDQ-47" value="" style="endArrow=none;html=1;rounded=0;fontSize=12;startSize=8;endSize=8;curved=1;exitX=1;exitY=0.75;exitDx=0;exitDy=0;entryX=0;entryY=0.75;entryDx=0;entryDy=0;" parent="1" source="SoVxkgg8JPjOXkME5BDQ-45" target="SoVxkgg8JPjOXkME5BDQ-34" edge="1">
          <mxGeometry width="50" height="50" relative="1" as="geometry">
            <mxPoint x="3130" y="-1290" as="sourcePoint" />
            <mxPoint x="3180" y="-1340" as="targetPoint" />
          </mxGeometry>
        </mxCell>
        <mxCell id="SoVxkgg8JPjOXkME5BDQ-48" value="" style="endArrow=none;html=1;rounded=0;fontSize=12;startSize=8;endSize=8;curved=1;entryX=0.5;entryY=1;entryDx=0;entryDy=0;" parent="1" source="SoVxkgg8JPjOXkME5BDQ-45" target="SoVxkgg8JPjOXkME5BDQ-24" edge="1">
          <mxGeometry width="50" height="50" relative="1" as="geometry">
            <mxPoint x="3130" y="-1290" as="sourcePoint" />
            <mxPoint x="3180" y="-1340" as="targetPoint" />
          </mxGeometry>
        </mxCell>
        <mxCell id="SoVxkgg8JPjOXkME5BDQ-49" value="" style="endArrow=classic;html=1;rounded=0;" parent="1" edge="1">
          <mxGeometry width="50" height="50" relative="1" as="geometry">
            <mxPoint x="3076" y="-1532.5" as="sourcePoint" />
            <mxPoint x="2980" y="-1320" as="targetPoint" />
          </mxGeometry>
        </mxCell>
        <mxCell id="SoVxkgg8JPjOXkME5BDQ-50" value="&lt;font style=&quot;font-size: 18px;&quot;&gt;&lt;font style=&quot;font-size: 18px;&quot;&gt;3.1.1.1: &lt;/font&gt;Employment()&lt;/font&gt;" style="text;html=1;align=center;verticalAlign=middle;resizable=0;points=[];autosize=1;strokeColor=none;fillColor=none;" parent="1" vertex="1">
          <mxGeometry x="3095" y="-1310" width="200" height="40" as="geometry" />
        </mxCell>
        <mxCell id="SoVxkgg8JPjOXkME5BDQ-51" style="edgeStyle=none;curved=1;rounded=0;orthogonalLoop=1;jettySize=auto;html=1;exitX=0.5;exitY=0;exitDx=0;exitDy=0;fontSize=12;startSize=8;endSize=8;" parent="1" edge="1">
          <mxGeometry relative="1" as="geometry">
            <mxPoint x="3850" y="-662.5" as="sourcePoint" />
            <mxPoint x="3850" y="-662.5" as="targetPoint" />
          </mxGeometry>
        </mxCell>
        <mxCell id="SoVxkgg8JPjOXkME5BDQ-53" value="&lt;font style=&quot;font-size: 18px;&quot;&gt;:&lt;font style=&quot;font-size: 18px;&quot;&gt;MemberCollection&lt;/font&gt;&lt;/font&gt;" style="rounded=0;whiteSpace=wrap;html=1;movable=1;resizable=1;rotatable=1;deletable=1;editable=1;locked=0;connectable=1;align=left;" parent="1" vertex="1">
          <mxGeometry x="2520" y="-1295" width="190" height="70" as="geometry" />
        </mxCell>
        <mxCell id="cIL7napQ0J31iyJdrdCk-112" value="&lt;font style=&quot;font-size: 18px;&quot;&gt;4: EmploymentNumberpeople()&lt;br&gt;&lt;/font&gt;" style="text;html=1;align=center;verticalAlign=middle;resizable=0;points=[];autosize=1;strokeColor=none;fillColor=none;" vertex="1" parent="1">
          <mxGeometry x="2735" y="-1050" width="270" height="40" as="geometry" />
        </mxCell>
        <mxCell id="cIL7napQ0J31iyJdrdCk-113" value="&lt;font style=&quot;font-size: 18px;&quot;&gt;5: EmploymentWork()&lt;br&gt;&lt;/font&gt;" style="text;html=1;align=center;verticalAlign=middle;resizable=0;points=[];autosize=1;strokeColor=none;fillColor=none;" vertex="1" parent="1">
          <mxGeometry x="2770" y="-1020" width="200" height="40" as="geometry" />
        </mxCell>
        <mxCell id="cIL7napQ0J31iyJdrdCk-114" value="&lt;font style=&quot;font-size: 18px;&quot;&gt;4.1:&amp;nbsp;*[For all Employments]&amp;nbsp;getEmployment()&lt;/font&gt;" style="text;html=1;align=center;verticalAlign=middle;resizable=0;points=[];autosize=1;strokeColor=none;fillColor=none;fontSize=16;" vertex="1" parent="1">
          <mxGeometry x="2690" y="-712" width="380" height="40" as="geometry" />
        </mxCell>
        <mxCell id="cIL7napQ0J31iyJdrdCk-115" value="&lt;font style=&quot;font-size: 18px;&quot;&gt;5.1:&amp;nbsp;*[For all Employments] getEmployment()&lt;/font&gt;" style="text;html=1;align=center;verticalAlign=middle;resizable=0;points=[];autosize=1;strokeColor=none;fillColor=none;fontSize=16;" vertex="1" parent="1">
          <mxGeometry x="2660" y="-660" width="380" height="40" as="geometry" />
        </mxCell>
        <mxCell id="cIL7napQ0J31iyJdrdCk-117" value="&lt;font style=&quot;font-size: 18px;&quot;&gt;4.1.1 get_Numberpeople()&lt;/font&gt;" style="text;html=1;align=center;verticalAlign=middle;resizable=0;points=[];autosize=1;strokeColor=none;fillColor=none;" vertex="1" parent="1">
          <mxGeometry x="3495" y="-664" width="230" height="40" as="geometry" />
        </mxCell>
        <mxCell id="cIL7napQ0J31iyJdrdCk-118" value="&lt;font style=&quot;font-size: 18px;&quot;&gt;5.1.1 get_work()&lt;/font&gt;" style="text;html=1;align=center;verticalAlign=middle;resizable=0;points=[];autosize=1;strokeColor=none;fillColor=none;" vertex="1" parent="1">
          <mxGeometry x="3535" y="-624" width="150" height="40" as="geometry" />
        </mxCell>
      </root>
    </mxGraphModel>
  </diagram>
</mxfile>
